<svg xmlns="http://www.w3.org/2000/svg" width="1000" height="1000" viewBox="0 0 2000 2000" shape-rendering="crispEdges">
  <rect width="2000" height="2000" fill="#ffffff"/>
  
  <g fill="#000000">
    <rect x="712" y="200" width="64" height="64"/><rect x="840" y="200" width="64" height="64"/><rect x="968" y="200" width="64" height="64"/><rect x="1096" y="200" width="64" height="64"/><rect x="776" y="264" width="64" height="64"/><rect x="840" y="264" width="64" height="64"/><rect x="904" y="264" width="64" height="64"/><rect x="968" y="264" width="64" height="64"/><rect x="1032" y="264" width="64" height="64"/><rect x="712" y="328" width="64" height="64"/><rect x="776" y="328" width="64" height="64"/><rect x="840" y="328" width="64" height="64"/><rect x="1160" y="328" width="64" height="64"/><rect x="712" y="392" width="64" height="64"/><rect x="776" y="392" width="64" height="64"/><rect x="840" y="392" width="64" height="64"/><rect x="968" y="392" width="64" height="64"/><rect x="1032" y="392" width="64" height="64"/><rect x="1096" y="392" width="64" height="64"/><rect x="1160" y="392" width="64" height="64"/><rect x="712" y="456" width="64" height="64"/><rect x="904" y="456" width="64" height="64"/><rect x="968" y="456" width="64" height="64"/><rect x="1160" y="456" width="64" height="64"/><rect x="1224" y="456" width="64" height="64"/><rect x="840" y="520" width="64" height="64"/><rect x="904" y="520" width="64" height="64"/><rect x="1096" y="520" width="64" height="64"/><rect x="1160" y="520" width="64" height="64"/><rect x="1224" y="520" width="64" height="64"/><rect x="712" y="584" width="64" height="64"/><rect x="840" y="584" width="64" height="64"/><rect x="968" y="584" width="64" height="64"/><rect x="1096" y="584" width="64" height="64"/><rect x="1224" y="584" width="64" height="64"/><rect x="840" y="648" width="64" height="64"/><rect x="968" y="648" width="64" height="64"/><rect x="1032" y="648" width="64" height="64"/><rect x="1096" y="648" width="64" height="64"/><rect x="1160" y="648" width="64" height="64"/><rect x="200" y="712" width="64" height="64"/><rect x="264" y="712" width="64" height="64"/><rect x="328" y="712" width="64" height="64"/><rect x="392" y="712" width="64" height="64"/><rect x="584" y="712" width="64" height="64"/><rect x="712" y="712" width="64" height="64"/><rect x="840" y="712" width="64" height="64"/><rect x="904" y="712" width="64" height="64"/><rect x="968" y="712" width="64" height="64"/><rect x="1032" y="712" width="64" height="64"/><rect x="1096" y="712" width="64" height="64"/><rect x="1224" y="712" width="64" height="64"/><rect x="1288" y="712" width="64" height="64"/><rect x="1480" y="712" width="64" height="64"/><rect x="1544" y="712" width="64" height="64"/><rect x="1608" y="712" width="64" height="64"/><rect x="1736" y="712" width="64" height="64"/><rect x="328" y="776" width="64" height="64"/><rect x="392" y="776" width="64" height="64"/><rect x="456" y="776" width="64" height="64"/><rect x="648" y="776" width="64" height="64"/><rect x="840" y="776" width="64" height="64"/><rect x="968" y="776" width="64" height="64"/><rect x="1096" y="776" width="64" height="64"/><rect x="1288" y="776" width="64" height="64"/><rect x="1416" y="776" width="64" height="64"/><rect x="1480" y="776" width="64" height="64"/><rect x="1736" y="776" width="64" height="64"/><rect x="200" y="840" width="64" height="64"/><rect x="328" y="840" width="64" height="64"/><rect x="392" y="840" width="64" height="64"/><rect x="520" y="840" width="64" height="64"/><rect x="584" y="840" width="64" height="64"/><rect x="648" y="840" width="64" height="64"/><rect x="712" y="840" width="64" height="64"/><rect x="776" y="840" width="64" height="64"/><rect x="840" y="840" width="64" height="64"/><rect x="904" y="840" width="64" height="64"/><rect x="968" y="840" width="64" height="64"/><rect x="1032" y="840" width="64" height="64"/><rect x="1096" y="840" width="64" height="64"/><rect x="1544" y="840" width="64" height="64"/><rect x="1608" y="840" width="64" height="64"/><rect x="1672" y="840" width="64" height="64"/><rect x="1736" y="840" width="64" height="64"/><rect x="264" y="904" width="64" height="64"/><rect x="520" y="904" width="64" height="64"/><rect x="776" y="904" width="64" height="64"/><rect x="840" y="904" width="64" height="64"/><rect x="1160" y="904" width="64" height="64"/><rect x="1352" y="904" width="64" height="64"/><rect x="1416" y="904" width="64" height="64"/><rect x="1544" y="904" width="64" height="64"/><rect x="1608" y="904" width="64" height="64"/><rect x="1736" y="904" width="64" height="64"/><rect x="200" y="968" width="64" height="64"/><rect x="328" y="968" width="64" height="64"/><rect x="392" y="968" width="64" height="64"/><rect x="456" y="968" width="64" height="64"/><rect x="584" y="968" width="64" height="64"/><rect x="648" y="968" width="64" height="64"/><rect x="776" y="968" width="64" height="64"/><rect x="840" y="968" width="64" height="64"/><rect x="968" y="968" width="64" height="64"/><rect x="1032" y="968" width="64" height="64"/><rect x="1096" y="968" width="64" height="64"/><rect x="1160" y="968" width="64" height="64"/><rect x="1224" y="968" width="64" height="64"/><rect x="1288" y="968" width="64" height="64"/><rect x="1352" y="968" width="64" height="64"/><rect x="1416" y="968" width="64" height="64"/><rect x="1480" y="968" width="64" height="64"/><rect x="1544" y="968" width="64" height="64"/><rect x="1672" y="968" width="64" height="64"/><rect x="1736" y="968" width="64" height="64"/><rect x="328" y="1032" width="64" height="64"/><rect x="392" y="1032" width="64" height="64"/><rect x="520" y="1032" width="64" height="64"/><rect x="712" y="1032" width="64" height="64"/><rect x="776" y="1032" width="64" height="64"/><rect x="904" y="1032" width="64" height="64"/><rect x="968" y="1032" width="64" height="64"/><rect x="1224" y="1032" width="64" height="64"/><rect x="1352" y="1032" width="64" height="64"/><rect x="1416" y="1032" width="64" height="64"/><rect x="1544" y="1032" width="64" height="64"/><rect x="1736" y="1032" width="64" height="64"/><rect x="264" y="1096" width="64" height="64"/><rect x="392" y="1096" width="64" height="64"/><rect x="456" y="1096" width="64" height="64"/><rect x="584" y="1096" width="64" height="64"/><rect x="648" y="1096" width="64" height="64"/><rect x="840" y="1096" width="64" height="64"/><rect x="904" y="1096" width="64" height="64"/><rect x="1032" y="1096" width="64" height="64"/><rect x="1096" y="1096" width="64" height="64"/><rect x="1288" y="1096" width="64" height="64"/><rect x="1416" y="1096" width="64" height="64"/><rect x="1480" y="1096" width="64" height="64"/><rect x="1544" y="1096" width="64" height="64"/><rect x="1672" y="1096" width="64" height="64"/><rect x="200" y="1160" width="64" height="64"/><rect x="392" y="1160" width="64" height="64"/><rect x="520" y="1160" width="64" height="64"/><rect x="712" y="1160" width="64" height="64"/><rect x="904" y="1160" width="64" height="64"/><rect x="1224" y="1160" width="64" height="64"/><rect x="1672" y="1160" width="64" height="64"/><rect x="1736" y="1160" width="64" height="64"/><rect x="328" y="1224" width="64" height="64"/><rect x="520" y="1224" width="64" height="64"/><rect x="584" y="1224" width="64" height="64"/><rect x="1224" y="1224" width="64" height="64"/><rect x="1288" y="1224" width="64" height="64"/><rect x="1352" y="1224" width="64" height="64"/><rect x="1416" y="1224" width="64" height="64"/><rect x="1480" y="1224" width="64" height="64"/><rect x="1672" y="1224" width="64" height="64"/><rect x="712" y="1288" width="64" height="64"/><rect x="776" y="1288" width="64" height="64"/><rect x="840" y="1288" width="64" height="64"/><rect x="1032" y="1288" width="64" height="64"/><rect x="1096" y="1288" width="64" height="64"/><rect x="1224" y="1288" width="64" height="64"/><rect x="1480" y="1288" width="64" height="64"/><rect x="1544" y="1288" width="64" height="64"/><rect x="1608" y="1288" width="64" height="64"/><rect x="840" y="1352" width="64" height="64"/><rect x="968" y="1352" width="64" height="64"/><rect x="1032" y="1352" width="64" height="64"/><rect x="1096" y="1352" width="64" height="64"/><rect x="1160" y="1352" width="64" height="64"/><rect x="1224" y="1352" width="64" height="64"/><rect x="1352" y="1352" width="64" height="64"/><rect x="1480" y="1352" width="64" height="64"/><rect x="1608" y="1352" width="64" height="64"/><rect x="1672" y="1352" width="64" height="64"/><rect x="1736" y="1352" width="64" height="64"/><rect x="776" y="1416" width="64" height="64"/><rect x="904" y="1416" width="64" height="64"/><rect x="1224" y="1416" width="64" height="64"/><rect x="1480" y="1416" width="64" height="64"/><rect x="1672" y="1416" width="64" height="64"/><rect x="1736" y="1416" width="64" height="64"/><rect x="968" y="1480" width="64" height="64"/><rect x="1096" y="1480" width="64" height="64"/><rect x="1160" y="1480" width="64" height="64"/><rect x="1224" y="1480" width="64" height="64"/><rect x="1288" y="1480" width="64" height="64"/><rect x="1352" y="1480" width="64" height="64"/><rect x="1416" y="1480" width="64" height="64"/><rect x="1480" y="1480" width="64" height="64"/><rect x="1608" y="1480" width="64" height="64"/><rect x="1736" y="1480" width="64" height="64"/><rect x="712" y="1544" width="64" height="64"/><rect x="968" y="1544" width="64" height="64"/><rect x="1160" y="1544" width="64" height="64"/><rect x="1224" y="1544" width="64" height="64"/><rect x="1480" y="1544" width="64" height="64"/><rect x="1672" y="1544" width="64" height="64"/><rect x="1736" y="1544" width="64" height="64"/><rect x="712" y="1608" width="64" height="64"/><rect x="776" y="1608" width="64" height="64"/><rect x="840" y="1608" width="64" height="64"/><rect x="968" y="1608" width="64" height="64"/><rect x="1032" y="1608" width="64" height="64"/><rect x="1160" y="1608" width="64" height="64"/><rect x="1544" y="1608" width="64" height="64"/><rect x="1608" y="1608" width="64" height="64"/><rect x="1672" y="1608" width="64" height="64"/><rect x="712" y="1672" width="64" height="64"/><rect x="776" y="1672" width="64" height="64"/><rect x="904" y="1672" width="64" height="64"/><rect x="968" y="1672" width="64" height="64"/><rect x="1032" y="1672" width="64" height="64"/><rect x="1096" y="1672" width="64" height="64"/><rect x="1224" y="1672" width="64" height="64"/><rect x="1288" y="1672" width="64" height="64"/><rect x="1480" y="1672" width="64" height="64"/><rect x="1608" y="1672" width="64" height="64"/><rect x="1672" y="1672" width="64" height="64"/><rect x="1736" y="1672" width="64" height="64"/><rect x="712" y="1736" width="64" height="64"/><rect x="776" y="1736" width="64" height="64"/><rect x="968" y="1736" width="64" height="64"/><rect x="1032" y="1736" width="64" height="64"/><rect x="1096" y="1736" width="64" height="64"/><rect x="1288" y="1736" width="64" height="64"/><rect x="1608" y="1736" width="64" height="64"/><rect x="1672" y="1736" width="64" height="64"/><rect x="1736" y="1736" width="64" height="64"/>

    <path d="M200 200h448v448H200zM264 264v320h320V264H264zm64 64h192v192H328V328z"/>
    <path d="M1352 200h448v448h-448zM1416 264v320h320V264h-320zm64 64h192v192h-192V328z"/>
    <path d="M200 1352h448v448H200zM264 1416v320h320v-320H264zm64 64h192v192H328v-192z"/>
  </g>
</svg>
